<svg xmlns="http://www.w3.org/2000/svg" preserveAspectRatio="xMidYMid" width="22" height="21" viewBox="0 0 22 21"><defs><style>.cls-2{fill:#484848}</style></defs><path d="M20.48 17.989l-4.679-4.679a8.56 8.56 0 0 0 1.401-4.699 8.606 8.606 0 1 0-8.606 8.606 8.558 8.558 0 0 0 4.699-1.401l4.68 4.679c.346.346.798.519 1.252.519a1.772 1.772 0 0 0 1.253-3.025zM2.521 8.611a6.082 6.082 0 0 1 6.075-6.075 6.082 6.082 0 0 1 6.075 6.075 6.082 6.082 0 0 1-6.075 6.075 6.082 6.082 0 0 1-6.075-6.075z" id="path-1" class="cls-2" fill-rule="evenodd"/></svg>