<svg xmlns="http://www.w3.org/2000/svg" preserveAspectRatio="xMidYMid" width="26" height="26" viewBox="0 0 26 26"><defs><style>.cls-2{fill:#ec2235}</style></defs><path d="M25.457 22.983l-7.062-7.063c-.015-.014-.032-.024-.046-.038a10.037 10.037 0 0 0 1.824-5.777c0-5.573-4.517-10.09-10.089-10.09S-.005 4.532-.005 10.105c0 5.573 4.517 10.09 10.089 10.09 2.15 0 4.139-.678 5.777-1.824.013.014.023.031.037.046l7.062 7.063a1.76 1.76 0 0 0 1.249.517 1.765 1.765 0 0 0 1.248-3.014zM2.518 10.105c0-4.172 3.394-7.567 7.566-7.567 4.173 0 7.567 3.395 7.567 7.567 0 4.173-3.394 7.568-7.567 7.568-4.172 0-7.566-3.395-7.566-7.568z" id="path-1" class="cls-2" fill-rule="evenodd"/></svg>